<?xml version="1.0" encoding="utf-8"?>
<!-- Generator: Adobe Illustrator 19.0.0, SVG Export Plug-In . SVG Version: 6.00 Build 0)  -->
<svg version="1.1" id="Layer_1" xmlns="http://www.w3.org/2000/svg" xmlns:xlink="http://www.w3.org/1999/xlink" x="0px" y="0px"
	 viewBox="0 0 250 50" style="enable-background:new 0 0 250 50;" xml:space="preserve">
<style type="text/css">
	.st0{fill:#FFC107;stroke:#FFA000;stroke-miterlimit:10;}
	.st1{fill:none;stroke:#FFA000;stroke-miterlimit:10;}
</style>
<path id="XMLID_1_" class="st0" d="M173,40.8l-9.7,5.4c-1.1,0.6-2.4-0.3-2.2-1.6l1.9-11.8c0.2-1.2-0.2-2.3-1-3.2l-8.2-8.4
	c-0.9-0.9-0.4-2.3,0.8-2.5l11.1-1.7c1.2-0.2,2.3-1,2.8-2.1l4.9-10.5c0.5-1.2,2.2-1.2,2.7,0l4.9,10.5c0.5,1.1,1.6,1.9,2.8,2.1
	l11.1,1.7c1.2,0.2,1.7,1.7,0.8,2.5l-8.2,8.4c-0.8,0.8-1.2,2-1,3.2l1.9,11.8c0.2,1.2-1.1,2.2-2.2,1.6l-9.7-5.4
	C175.5,40.2,174.1,40.2,173,40.8z"/>
<path id="XMLID_2_" class="st0" d="M123.2,40.8l-9.7,5.4c-1.1,0.6-2.4-0.3-2.2-1.6l1.9-11.8c0.2-1.2-0.2-2.3-1-3.2l-8.2-8.4
	c-0.9-0.9-0.4-2.3,0.8-2.5l11.1-1.7c1.2-0.2,2.3-1,2.8-2.1l4.9-10.5c0.5-1.2,2.2-1.2,2.7,0l4.9,10.5c0.5,1.1,1.6,1.9,2.8,2.1
	l11.1,1.7c1.2,0.2,1.7,1.7,0.8,2.5l-8.2,8.4c-0.8,0.8-1.2,2-1,3.2l1.9,11.8c0.2,1.2-1.1,2.2-2.2,1.6l-9.7-5.4
	C125.7,40.2,124.3,40.2,123.2,40.8z"/>
<path id="XMLID_3_" class="st0" d="M23.6,40.8l-9.7,5.4c-1.1,0.6-2.4-0.3-2.2-1.6l1.9-11.8c0.2-1.2-0.2-2.3-1-3.2l-8.2-8.4
	c-0.9-0.9-0.4-2.3,0.8-2.5l11.1-1.7c1.2-0.2,2.3-1,2.8-2.1L24,4.5c0.5-1.2,2.2-1.2,2.7,0L31.7,15c0.5,1.1,1.6,1.9,2.8,2.1l11.1,1.7
	c1.2,0.2,1.7,1.7,0.8,2.5l-8.2,8.4c-0.8,0.8-1.2,2-1,3.2l1.9,11.8c0.2,1.2-1.1,2.2-2.2,1.6l-9.7-5.4C26.1,40.2,24.7,40.2,23.6,40.8z
	"/>
<path id="XMLID_4_" class="st0" d="M73.4,40.8l-9.7,5.4c-1.1,0.6-2.4-0.3-2.2-1.6l1.9-11.8c0.2-1.2-0.2-2.3-1-3.2l-8.2-8.4
	c-0.9-0.9-0.4-2.3,0.8-2.5l11.1-1.7c1.2-0.2,2.3-1,2.8-2.1l4.9-10.5c0.5-1.2,2.2-1.2,2.7,0L81.5,15c0.5,1.1,1.6,1.9,2.8,2.1
	l11.1,1.7c1.2,0.2,1.7,1.7,0.8,2.5L88,29.7c-0.8,0.8-1.2,2-1,3.2l1.9,11.8c0.2,1.2-1.1,2.2-2.2,1.6L77,40.8
	C75.9,40.2,74.5,40.2,73.4,40.8z"/>
<path id="XMLID_5_" class="st1" d="M222.8,40.8l-9.7,5.4c-1.1,0.6-2.4-0.3-2.2-1.6l1.9-11.8c0.2-1.2-0.2-2.3-1-3.2l-8.2-8.4
	c-0.9-0.9-0.4-2.3,0.8-2.5l11.1-1.7c1.2-0.2,2.3-1,2.8-2.1l4.9-10.5c0.5-1.2,2.2-1.2,2.7,0l4.9,10.5c0.5,1.1,1.6,1.9,2.8,2.1
	l11.1,1.7c1.2,0.2,1.7,1.7,0.8,2.5l-8.2,8.4c-0.8,0.8-1.2,2-1,3.2l1.9,11.8c0.2,1.2-1.1,2.2-2.2,1.6l-9.7-5.4
	C225.3,40.2,223.9,40.2,222.8,40.8z"/>
</svg>
